<?xml version="1.0" encoding="UTF-8"?>
<svg width="752pt" height="752pt" version="1.1" viewBox="0 0 752 752" xmlns="http://www.w3.org/2000/svg">
 <g>
  <path d="m415.73 267.54-5.1641-3.4805-0.29688-2.582c-0.73828-0.9375-1.8008-0.95312-2.8633-1.6758-2.1211-4.4453-5.4023-8.2344-9.4961-10.969-1.3203-2.4453-3.0039-4.6758-5-6.6094-0.17578-1.293 0.28906-2.5938 1.2461-3.4844 1.1562-0.45313 2.4414-0.44531 3.5938 0.023437l0.30469 0.38672 0.65234 3.1133 0.92969 1.9805 2.5781 2.043 1.25 2.6406 0.94531 0.78516c1.543 1.1016 3.0859 2.1992 4.6562 3.2617l-0.003906-0.007812c0.5625 0.4375 1.1953 0.76953 1.875 0.98438 1.3945 0.31641 2.668 1.0312 3.668 2.0508 0.52344 0.40625 1.1016 0.73828 1.7148 0.98438 1.7539 0.17969 3.5273-0.082031 5.1523-0.75781l4.6719-3.6172 1.8711 0.21484 7.9023-4.9766c0.49609-0.88281 0.53906-1.9492 0.11328-2.8711l-1.4023-3.6641 1.1562-9.4297c0.73828-0.79297 1.3945 0.042969 2.0664-0.082031l2.1992-0.21094 1.5 1.3594c0.34375 2.3164 0.13672 4.6797-0.60547 6.9023 0.27344 2.5859 2.3672 3.6875 3.4297 5.4922 0.95703 0.25781 1.9375 0.40625 2.9258 0.4375 2.7344-0.085937 5.4609 0.33203 8.043 1.2305 2.4023 0.66406 4.7578 1.5 7.1172 2.3164 0.89453 0.30859 1.7305 0.77734 2.4453 1.1016l1.6172 1.5977 2.6797 0.95703c0.59766 0.91016 1.1445 1.8477 1.6445 2.8164 0.38672 0.94141 0.72266 1.9062 1 2.8867 0.65234 0.66016 1.5391 1.0352 2.4648 1.043l0.41797-0.82422-0.26172-3.918v-0.003907c-0.75391-2.0039-1.9805-3.8008-3.5781-5.2266-1.7266-1.6289-3.3164-3.4023-5.0117-5.0664-1.1367-1.2109-2.3477-2.3477-3.625-3.4023-1.2656-1.0781-2.3867-2.3164-3.3359-3.6797-0.91797-1.2383-2.0195-2.3359-3.2617-3.2539-0.75781-0.56641-1.4336-1.2422-2.0039-2.0039-0.94531-1.2109-1.7656-2.5234-2.6914-3.7578v0.003906c-0.83203-1.3008-1.8203-2.4961-2.9414-3.5586-0.50781-0.52734-0.96094-1.1055-1.3438-1.7305-0.80078-0.10547-1.5859-0.28906-2.3477-0.54297-1.3281-0.60156-2.8633-0.49609-4.0977 0.27734-1.5859 0.80859-3.3047 1.3281-5.0703 1.5312-2.6875 0.46875-5.3242 1.2031-7.9805 1.8438-0.80859 0.19531-1.5898 0.51172-2.4062 0.64453-0.82031 0.09375-1.6484 0.14453-2.4766 0.14453-2.2852 0.98437-4.7031 1.6211-7.1758 1.8867-1.8828 0.16406-3.7578 0.3125-5.6602 0.33984-2.7344 0.082031-5.457 0.37109-8.1445 0.86328-3.7344 0.77344-7.2773 2.2695-10.434 4.4023l-3.1797 1.9844-1.043 1.4414c-0.9375 0.72266-2.4141 1.0625-3.1836 2.4336-0.30469 0.54297-1.1523 0.77734-1.957 1.2773h-0.003906c-0.27344 0.56641-0.59766 1.1016-0.97656 1.6016-3.4297 3.9492-6.1562 8.4453-9.6211 12.359-1.543 1.8008-2.9805 3.6875-4.3086 5.6523-1.2188 1.7422-2.2266 3.6328-3.4102 5.5898l0.25391 2c-0.44531 1.8594-2.2031 2.7148-3.4883 4.5312l0.003906-0.003907c-0.84375 2.1875-2.1602 4.1602-3.8555 5.7773-1.5391 1.9531-2.8711 4.0586-4.4688 5.957v0.003906c-0.6875 0.81641-1.418 1.5898-2.1992 2.3203-2.0156 2-4.1797 3.8516-6.4688 5.5352-0.71875 0.42188-1.3594 0.96094-1.8945 1.5977-1.1172 1.582-2.7383 2.625-3.9766 4.0586l-1.5469 0.32422c-1.4414 1.1445-2.6797 2.25-4.043 3.1836-2.2812 1.5664-3.8008 4.0195-4.1836 6.7617-0.42188 3.0625-1.2109 6.0664-2.3438 8.9453-0.32812 1.0312-0.55078 2.0938-0.65234 3.1719-2.9062 4.7266-2.9062 4.7266-4.0234 5.0195l-0.26172-0.99219c0.050781-2.1406 0.26562-4.2734 0.64844-6.3789 0.40234-1.6211 0.51562-3.3047 0.33594-4.9648-0.33203-2.8359-0.37891-5.6992-0.13672-8.543 0.066406-0.82422 0.007812-1.6562 0.007812-2.5977l0.003906-0.003906c1.1914-1.4414 2.2305-3.0039 3.1016-4.6602 0.80859-1.4531 1.8516-2.7617 3.0859-3.8789l1.0195-0.99609 6.1484-8.3438c1.0547-0.48047 1.9922-1.1914 2.7344-2.082 0.8125-1.0312 1.8125-1.8945 2.9492-2.5508l0.77344-0.72656c1.7422-2.0977 3.5625-4.1211 5.3906-6.1445 1.9883-2.1992 3.8203-4.5469 5.6953-6.8438 0.89453-1.1016 1.7734-2.2227 2.5781-3.3906 0.81641-1.3125 1.7734-2.5312 2.8594-3.6289l0.63281-0.85156c2.2305-4.0742 5.1523-7.6914 7.6914-11.555 0.78125-1.1875 1.4688-2.4414 2.1602-3.6836l1.2812-2.5391v-0.003906c0.75-1.8867 2.0117-3.5273 3.6406-4.7344 0.58203-0.42187 1.0352-1 1.3086-1.6641 0.84375-1.7109 2.1523-3.1484 3.7734-4.1484 1.7773-1.2578 3.3672-2.7539 4.7266-4.4531l3.3008-1.8008 1.4023-1.7461c2.4961-0.73828 5.0469-1.2852 7.6289-1.6406l1.0547-0.16797c1.2812-0.61328 2.6602-1.0117 4.0703-1.1836 1.4102-0.023437 2.6719-0.96094 4.1523-0.92578 0.47266-0.054688 0.92969-0.21094 1.3398-0.44922 0.75391-0.35156 1.5742-0.53516 2.4102-0.54688 2.2539-0.066406 4.4766-0.58203 6.5352-1.5156 0.74219-0.36719 1.543-0.60547 2.3672-0.71094 1.3008-0.046876 2.5898-0.28906 3.8203-0.71484 0.79688-0.24609 1.6289-0.32812 2.457-0.24609 1.3047 0.11328 2.6211-0.027344 3.8711-0.41797l0.6875-0.17969c3.1914-0.18359 6.3555-0.70703 9.4414-1.5547l2.8633 0.60547 5.8867-1.2383 9.9141 2.5c1.6914 0.78125 2.7344 2.5859 4.2266 4.0625h0.003906c0.60547 1.6484 1.4688 3.1875 2.5625 4.5586 1.9961 2.6406 3.8633 5.3867 5.9727 7.9297 1.5938 1.918 3.0625 3.9414 4.6953 5.8047 1.7148 1.9648 3.4219 3.9492 5.2188 5.8438v0.003907c1.1602 1.1914 2.2031 2.4961 3.1094 3.8906 1.3242 2.1133 2.8828 4.0703 4.6523 5.8281l0.9375 1.0586v1.9531c-1.0977 1.2031-1.7656 2.7305-1.9062 4.3516 0.40625 1.3867 1 3.0703 1.375 4.8008 0.35156 1.6211 0.46484 3.293 0.70703 5.1133l-0.81641 3.0938c0.035156 2.2617 0.36328 4.5117 0.97656 6.6914 0.93359 1.5938 2.0586 3.0703 3.3555 4.3867 0.76953 0.74609 1.2617 1.7305 1.4023 2.793-0.26172 0.80469-0.93359 1.4023-1.7617 1.5703l-0.6875-0.15625c-0.58594-0.40234-1.1211-0.87109-1.5977-1.3945-1.5625-1.9414-3.1406-3.8828-4.5586-5.9258v-0.003906c-0.75-1.0859-1.625-2.0898-2.5977-2.9844l-1.3008-3.4023-3.4844-2.3828c-0.76953-2.4922-2.4492-4.6055-4.6992-5.9258l-1.0898-1.918c-1.5703-1.2891-3.2148-2.4766-4.6602-3.8711-1.5273-1.4688-3.6797-1.6289-5.1953-2.9023h0.003906c-3.6445-0.14062-7.2539-0.71875-10.754-1.7266l-1.7773 0.74609-0.69922-0.1875-2.8594-1.9219-0.003907-0.003907c-1.3477-0.19141-2.7227 0.13672-3.8438 0.91406-0.99609 0.65234-2.0781 1.1523-3.2188 1.4844-1.6562 0.66797-3.1719 1.6445-4.4609 2.8789-1.1211 1.6953-2.8242 2.918-4.7891 3.4297l-5.6875 6.1172c-0.21484 1.0312-0.52344 2.1797-0.67969 3.3516-0.085937 0.70703-0.050781 1.4219 0.10547 2.1172 0.64453 2.5078 0.89062 5.1055 0.73438 7.6914l0.94531 5.2539c-0.55469 1.7148 0.71484 3.207 0.49609 4.707l1.4492 2.7266v5.1328l-1.0742 2.3125-0.003906-0.007813c-1.2656 0.71094-2.457 1.5508-3.5469 2.5078-0.73828 0.59375-1.5703 1.0508-2.4648 1.3594-0.011719 1.7734 1.3867 3.0195 1.4648 4.6406l2.1797 1.6289c0.71484 2.1094 1.8516 4.0508 3.3438 5.6992l2.3477 3.1406 1.7617 2.2305c0.80469 1.0234 1.5508 2.0977 2.418 3.0703v-0.003906c2.1875 2.8125 4.5625 5.4727 7.1133 7.957 0.63672 0.53516 1.2031 1.1445 1.6875 1.8203 0.92578 1.3867 2.1016 2.5859 3.4688 3.5391 0.85547 0.64062 1.6445 1.3672 2.3555 2.1719 1.9648 2.125 4.1094 4.082 6.4062 5.8477l1.6797 2.6133c-0.078124 1.7695 0.29297 3.5 0.0625 5.3047v0.003906c-0.25781 1.6641 0.085938 3.3672 0.96875 4.8086l0.42578 1.1602-0.78125 2.2031-0.44141 2.0547-1.9492 2.1484h0.003906c-1.7695 0.30078-3.4219 1.0703-4.7969 2.2227-0.62891 1.0195-1.0664 2.1445-1.2969 3.3203-0.71094 1.8047-0.50391 3.8438 0.55078 5.4727 0.625 2.1836 1.8047 4.168 3.4219 5.7617 0.80469 0.87891 1.418 1.9141 1.8047 3.043l1 2.2812c0.95312 1.9219 1.8008 3.9336 3.9609 4.6719l2.1914 4.9336c1.6836 0.75781 2.875-0.33984 4.1602-0.67578h0.003906c2.6484-0.16016 5.1992 1.0078 6.8086 3.1172l0.35156 0.71875c0.33203 2.2539 1.3828 4.3438 3 5.9531 1.9883 2.0469 3.625 4.3984 5.6758 6.3984h0.003907c1.0352 1.1406 2.0039 2.3438 2.8984 3.5977l4.707 5.8242c1.0781 1.2734 1.8945 2.7461 2.4062 4.3359 0.38281 1.0156 0.83203 2.0078 1.3477 2.9648-0.97266 1.9297-3.1875 3.2578-3.1055 6.1562 0.066406 0.26953 0.50781 0.60547 1.457 0.77734l3.3164-0.71484 3.1055 0.49219 2.0391-0.83594 5.2109 0.35156c0.94531 0.050781 1.8945 0.035156 2.8477 0.03125 1.4258-0.007813 2.8633-0.14844 4.2773-0.023437l-0.003906 0.003906c1.6641 0.14844 3.3398 0 4.9492-0.44531 1.4961-0.375 3.0391-0.53906 4.582-0.48047 1.1875 0.007813 2.375-0.10156 3.6211-0.16406h0.003906c1.293 0.11719 2.5273 0.57812 3.582 1.3359-1.0312 1.5156-2.7344 1.1992-3.8828 2.0117-1.2344 0.74609-2.5156 1.4141-3.8359 1.9883l-7.4727 1.1523c-1.6836 0.4375-2.7891 2.7695-4.3086 4.0664-2.0234 0.59766-3.7422 1.0586-5.4258 1.6094-2.3477 0.80469-4.8125 1.2148-7.293 1.2148l-2.4219 1.6641h-0.003906c-2.8477 0.875-5.8398 1.1719-8.8086 0.87109-0.94531-0.097656-1.8984-0.11328-2.8516-0.046874-2.4805 0.26562-4.9805 0.28906-7.4688 0.070312l-1.207 0.21484c-1.25 1.2461-2.5078 2.668-3.9414 3.8906-1.4297 1.2227-3.0469 2.2539-4.5781 3.3711l-4.6406 1.7305c-0.76953 0.30469-1.5781 0.51172-2.3984 0.61328-1.3125 0.066407-2.5859 0.48828-3.6836 1.2148-1.625 1-3.4531 1.6172-5.3516 1.8008-1.3047 0.24609-2.5859 0.58984-3.8359 1.0312-1.3516 0-2.4219-0.007813-3.4883 0h-0.003907c-0.82812-0.035157-1.6641-0.015626-2.4922 0.066406-2.2344 0.32422-4.4531 0.71875-6.6758 1.1055-1.4805 0.44531-3.0195 0.65625-4.5625 0.63281l-0.70312 0.09375c-2.4219 1.0195-5.0938 1.1367-7.5195 2.1133l-2.3867 1.1367-13.098 2.5078-2.1211 0.26172c-1.0547 0.16016-2.1211 0.29297-3.1523 0.54688h-0.007813c-1.7305 0.41406-3.5 0.625-5.2812 0.63281-1.5391 0.042968-3.0742 0.17969-4.5977 0.41016-2.3555 0.24609-4.7266 0.35938-7.0977 0.33203-1.4297-0.023437-2.8594 0.027344-4.2852 0.15625-1.1367 0.60156-1.1094 1.5938-1.6602 2.2227-3.125 1.8789-4.707 1.9883-10.047 0.74219l-13.707 0.76953-8.4688-2.6719-2.4219-0.55469-4.5898-0.57422 0.003907-0.007813c-1.4023-0.28516-2.8555-0.14453-4.1797 0.39844-0.80469 0.17578-1.6406 0.19531-2.4531 0.054688l-3.8477-3.3867c-0.55859-0.67969-0.69141-1.6133-0.35547-2.4258l1.957-1.2578-0.015624-0.99219c-0.41797-1.2188-1.6602-1.6406-2.6758-2.6133l-2.0039-3.7148c0.17578-1.7305 0.28516-3.2617 0.5-4.7812v-0.003906c0.10938-1.0625 0.33594-2.1094 0.67578-3.125 0.46484-1.3477 0.76172-2.7461 0.89453-4.168 0.23828-1.8828 0.45313-3.7734 0.61328-5.6641 0.12891-1.8984 0.39062-3.7852 0.78516-5.6445 0.42188-2.4492 0.67969-4.9258 0.76953-7.4062-0.023437-0.48438-0.10156-0.96094-0.24219-1.4219l-3.1328-0.85938c-1.0234-0.31641-2.0117-0.75391-3.043-1.0312-0.92187-0.21484-1.8555-0.38281-2.7969-0.50391l-4.2305-0.62891-1.3828-0.31641c-3.5898-1.9531-7.7305-2.2461-11.453-3.8203h-0.003906c-1.1016-0.43359-2.2578-0.72266-3.4375-0.86719-1.3203-0.20703-2.582-0.6875-3.707-1.4102-1.0195-0.31641-2.125-0.042969-2.8828 0.70703-0.54688 0.46875-0.79688 1.1992-0.64844 1.9062 0.37891 0.91797 1.457 0.75781 2.3125 1.6914 0.41797 1.1875 1.1172 2.2578 2.0391 3.1172-0.09375 5.3984-0.80469 10.77-2.1211 16.008-1.582 3.2461-2.8477 6.6328-3.7852 10.121l-1.5508 1.8359c-0.11719 0.94141 0.27344 1.4492 0.85938 1.6016 3.3984 1.4062 6.8633 2.6328 10.387 3.6758 0.57422 0.15625 1.1328 0.35547 1.6719 0.59766 2.0078 0.76172 4.1328 1.1406 6.2773 1.1172 2.1328 0.125 4.2422 0.47656 6.2969 1.0547 0.60156 0.054688 1.1484 0.375 1.4883 0.875-0.13672 0.91797-0.94531 0.90234-1.8477 1.2773-1.5-0.12891-3.2695-0.33203-5.0391-0.42578l-0.003906 0.003906c-1.0625-0.0625-2.1328-0.023437-3.1914 0.11719-1.4141 0.19141-2.8555 0.13281-4.25-0.17188-0.79297-0.24609-1.6211-0.36719-2.4492-0.35156-1.9023 0.125-3.8125-0.17969-5.5781-0.90234-4.1953-1.2969-8.4688-2.332-12.793-3.1055-0.85938-0.12109-1.7266-0.19531-2.5938-0.21875l-4.2266 2.0938v0.003906c-2.3359-0.039063-4.6562 0.32031-6.8711 1.0547-1.2461 0.39453-2.5586 0.55078-3.8633 0.46094-1.2148-0.13672-2.4414 0.0625-3.5508 0.57812l-5.5898-0.26953c-5.9531-1.4531-12.141-1.6562-18.172-0.59375-2.2734-0.49609-4.5938-0.71875-6.9141-0.66406-2.8555-0.011719-5.707-0.19531-8.5547-0.33984l-1.3477-0.39844-0.16016-1.2148c0.41016-0.23047 0.79297-0.60938 1.2148-0.66406 2.7148-0.3125 5.4336-0.61719 8.1562-0.80469 3.3203-0.22656 6.6289-0.56641 9.9219-1.0547h-0.003907c0.9375-0.16016 1.8438-0.44141 2.707-0.83594 3.0391-1.3594 6.2695-2.2305 9.582-2.5898 0.70703-0.0625 1.4102-0.19531 2.0938-0.39844 3.6133-1.168 7.2148-2.3633 10.812-3.5781l3.2383-1.2109c1.2891-1.0898 1.1211-2.2383 1.3203-3.2656l0.24609 0.050782 1.0234 2.3086v-0.003907c1.3867-0.058593 2.7695-0.25 4.1211-0.57812 1.7422-1.5234 1.7422-1.5234 2.1641-4.6797 0.75781-2.0703 1.4883-3.707 1.9375-5.418v0.003906c0.47656-1.8594 1.1641-3.6562 2.0547-5.3555l0.94531-9.8633c0.94531-2.0547 2.8164-2.6562 4.082-4.0742l-0.33203-2.332 0.26953-0.26562c1-0.42188 1.793 0.56641 3.2617 0.32422l1.9531-0.80859 0.44531-0.81641v0.003906c0.085937-1.3047 0.37891-2.5859 0.87109-3.7969l0.15625-0.6875c0.019531-1.918 0.4375-3.8125 1.2344-5.5586 0.03125-1.6094-0.25391-3.2109-0.84766-4.7109 0.81641-2.1758 1.0391-4.5273 0.65234-6.8203l-0.19531-4h0.003906c0.78125-1.6758 1.7227-3.2773 2.8164-4.7734 1.082-0.67578 2.1172-1.2617 3.0859-1.9453v0.003906c2.0781-1.9336 3.9219-4.1094 5.4805-6.4805l0.51172-1.3242 0.67578-1.2305c1.7383-1.4102 2.8203-3.5117 4.875-4.5898l0.78906-0.86328-1.625-2.9883 1.625-5.793c0.80859-1.8281 1.9414-3.4961 3.3438-4.9219 0.32422-1.2109 0.82812-2.3633 1.4883-3.4258 0.65234-0.99219 1.1797-2.0625 1.5703-3.1836 1.1719-2.9766 2.1797-6.0156 3.0156-9.1055 0.14062-0.94922 0.71094-1.7812 1.5508-2.2539 0.92578-0.20703 1.8945 0.027343 2.6172 0.64453l0.31641 0.625c0.23047 1.4023 0.48828 2.8008 0.625 4.2148 0.074219 1.3086-0.11328 2.6211-0.55469 3.8594l-1.4336 4.7344v0.003907c-0.76562 1.3398-1.6133 2.625-2.543 3.8555-1.0352 1.4609-1.8672 3.0547-2.4766 4.7383 0.21484 1.1953 0.92188 2.2422 1.9453 2.8945 3.4609 2.3203 6.7695 4.8633 9.9023 7.6133l1.6484 0.57812 1.7305 1.75 2.2266 1.7578 2.332 1.5156 4.6875 1.2109 2.9375 2.3789v-0.003907c0.99219 1.0586 1.3242 2.5742 0.86719 3.9492-0.57031 0.8125-1.543 1.2461-2.5312 1.125-2.2578-0.070312-4.5078-0.28516-6.7383-0.63672-1.8477-0.41016-3.6758-0.92969-5.4648-1.5547l-4.1406-1.3477-8.4922-5.8086-1.3242 0.55859c-0.46875 0.29297-1.0586 0.31641-1.5508 0.0625l-0.77734-1.6758-0.65234 0.14062-3.6758 3.7891-2.7578 4.6758c-0.019531 1.7344-0.51172 3.4297-1.418 4.9102l-0.56641 4.5352 0.71484 2.1875-0.34766 4.707c-0.046876 0.94531 0 1.8984 0.035156 2.8477l0.23828 5.1523v0.003906c1.082 2.3828 0.80859 5.1602-0.71094 7.293l-1.1289 2.0312c0.019531 0.8125 0.64453 1.4805 1.4531 1.5547 2.5977 0.39844 4.8086 2.0391 7.4648 2.25v-0.003906c0.71094 0.12109 1.3906 0.37109 2.0117 0.73438 2.2109 1.1641 4.6875 1.7422 7.1875 1.6836 0.92188 0.023437 1.8398 0.11719 2.7461 0.28906 1.0352-0.17969 1.1484-1.2383 2.3672-2.0156 2.3008-1.0664 4.4492-2.4258 6.3906-4.0508l2.1836-0.41406 1.3164 0.75781 9.75 0.67969 1.0547 0.17969c1.3047 0.089844 2.5312-0.625 3.875-0.33203 1.1562 0.27734 2.3477 0.35547 3.5273 0.24219 1.6562-0.19141 3.3359-0.0625 4.9453 0.37891 2.3945 0.66406 4.8086 1.2305 7.1445 2.1367 2.6523 1.0273 5.4102 1.7812 8.1445 2.5625l0.003907 0.003906c2.3008 0.27734 4.3867 1.5 5.7578 3.3711l1.9883 0.45312 1.1797 1.3516v0.003906c1.0508 0.65234 2.3125 0.87109 3.5195 0.62109 3.418-0.53125 6.8828-0.32812 10.305-0.73438 1.8867-0.22266 3.793-0.31641 5.6641-0.62891 2.3516-0.37109 4.5898-1.2695 6.543-2.6289l2.668-0.1875 4.4688-2.6719h2.1875c3.625-1.0938 7.1211-2.5859 10.418-4.4531l4.1953-1.9492 1.2969-0.57813c1.8164-1.3516 4.043-1.9141 5.9414-3.125v-0.003906c1.3672-0.74609 2.7891-1.3945 4.2461-1.9492l3.1875-2.1797h0.003906c1.0586-0.76953 2.25-1.3398 3.5156-1.6836 0.96094-0.14453 1.7891-0.74609 2.2227-1.6172 0.21875-1.168-0.92578-1.5781-1.4297-2.6758l-0.58203-2.9102-1.7539-1.3828c-2.1328-3.5312-2.5078-7.5-4.625-10.465-0.33984-3.3398-1.3789-6.5703-3.0469-9.4805-0.53516-1.9023-0.43359-3.9258 0.28516-5.7617l0.0625-1.0547-0.18359-0.69922h0.003906c-0.72656-0.64844-1.7578-0.82422-2.6523-0.45312-1.1523 0.26562-2.2578 0.72266-3.5352 1.1523h-3.7695c-1.5938 0.8125-3.3008 1.3789-5.0664 1.6719-0.42578 0.023437-0.81641 0.44922-1.2461 0.64062l-2.1289 0.86719-2.418 2.332-3.2188 0.41016v0.003906c-1.0664 0.11719-2.1484-0.058593-3.125-0.50781-1.082-0.47266-2.2227-0.81641-3.2031-1.1719-2.6523 0.30469-5.332 0.33594-7.9922 0.09375-1.543-0.085938-3.0898-0.03125-4.6211 0.16406-2.9531 0.26953-5.8906 0.70703-8.8594 0.875-2.8359 0.35938-5.7148 0.007813-8.3789-1.0273-1.7383-0.16406-3.3906-0.83594-4.7461-1.9336-2.2734-0.65625-4.6758-0.46484-6.3789-2.2148 0.37891-1.0664 0.37891-1.0664 2.4297-2.1484v-0.003907c0.74219-0.13281 1.5-0.15625 2.25-0.070312 1.8398 0.50391 3.7773 0.53906 5.6328 0.10156l0.35547-0.058593c3.418 0.41016 6.875 0.33594 10.273-0.22656 2.3672 0.054687 4.7148-0.46094 6.8438-1.5039 2.2422 0.5 4.5664 0.52734 6.8203 0.082031 3.3008-0.44141 6.4766-1.5391 9.3438-3.2305l0.98047-0.41016 1.9883-0.73438 1.582-0.94531 0.003906-0.003907c1.1602-0.070312 2.3086-0.28906 3.4141-0.64844 3.1523-1.0742 6.4102-1.7969 9.7148-2.1602 2.4883-0.21094 4.9844-0.25 7.4766-0.12109 0.82812 0.11719 1.6719-0.003906 2.4336-0.35156 0.85156-1.3906-0.066406-2.7734 0.011719-4.3281h-0.003906c-1.3945-1.5391-2.3828-3.4062-2.8672-5.4297-1.332-1.5508-2.8125-2.9727-4.4219-4.2383-1.0391-0.80078-1.957-1.7422-2.7305-2.8008-1.9453-2.3984-4.0312-4.6836-6.2422-6.8438-1.6484-1.6953-3.0469-3.625-4.8672-5.1602h0.003907c-0.43359-0.41016-0.78516-0.89453-1.0352-1.4375-0.78906-1.5078-1.8438-2.8633-3.1172-4-0.58984-1.9141-1.6133-3.6641-2.9883-5.1211-0.77344-0.90234-1.4141-1.9102-1.9023-2.9922l-2.5898-5.0195-0.73047-0.97266c-0.55078-0.042969-1.1016-0.035156-1.6523 0.019531l-2.043 0.60547v0.003907c-1.7109 0.51172-3.4922 0.73437-5.2773 0.66016-1.9023-0.19922-3.8242 0.019531-5.6328 0.64062l-1.2422 0.015625-2.2734-1.8008v0.003907c-0.63281-0.0625-1.2539-0.19531-1.8555-0.39844-1.0039-0.36719-2.0703-0.53906-3.1406-0.50391-1.5898 0.070313-3.1797-0.1875-4.6719-0.75781-2.0781 0.80859-4.3086 1.1406-6.5352 0.96875-0.82813-0.011718-1.6523 0.054688-2.4727 0.19141l-3.6445 0.49219-1.6719-0.85156v-0.003906c-4.4219-0.10156-8.7852-1.0234-12.867-2.7148l0.17969-0.79688c1.1289-0.65625 2.4102-1.0117 3.7148-1.0312 3.3047-0.33594 6.5938-0.85156 9.9062-1.0898 3.0742-0.22656 6.1133-0.79688 9.0625-1.6992 4.5781-0.71484 9.0859-1.8203 13.473-3.3008 1.8203-0.55078 3.5938-1.2383 5.3047-2.0586 1.2109-0.48438 2.457-0.89844 3.6094-1.4961 1.6758-0.86719 3.2734-1.8711 4.9141-2.8047v-0.003906c0.58594-0.39453 1.2148-0.71875 1.875-0.97266 1.7148-0.48828 3.3398-1.25 4.8164-2.2539 0.70703-0.41406 1.4453-0.77344 2.2109-1.0664 1.1523-1.2305 1.8672-2.8086 2.0234-4.4883l0.10547-1.0547v0.003906c0.88672-2.3281 1.3398-4.8008 1.3359-7.293 0.35937-2.2266 0.51562-4.4844 0.47266-6.7383zm26.289 157.77c-1.5 1.0352-3.1797 1.7734-4.957 2.1719-1.6406 0.24609-3.2461 0.67578-4.7891 1.2891-2.1914 0.91016-4.4922 1.5469-6.8398 1.8945-2.9336 0.42969-5.8203 1.1328-8.625 2.0977-1.6719 0.62891-3.4414 0.95703-5.2305 0.97266-2.0117 0.054687-4.0195 0.35547-6.0312 0.51562-3.1875 0.25391-6.3242 0.99219-9.5508 0.9375-2.1406-0.15234-4.2891-0.007812-6.3906 0.43359-0.46875 0.070312-0.94922 0.074218-1.418 0.011718l-6.1016-0.19531-0.83984 0.54688c-0.82422 2.0664-1.2383 4.2734-1.2227 6.4961l-1.1367 2.1094v5.1641l0.82031 1.9141c0.16016 1.7031-1.1211 2.4219-1.3711 3.6328v4.2578l-1.4219 2.4062c-0.16406 1.332-0.66406 2.6133 0.10938 3.8047l0.66797 0.39062c1.1367 0.23828 1.9883-0.71484 3.0156-0.76562v0.003907c2.2656 0.23828 4.5508 0.20312 6.8086-0.10156 0.58594 0.011719 1.1719-0.070313 1.7344-0.24219 1.3125-0.56641 2.7344-0.83594 4.168-0.79688 3.9102-0.28906 7.7656-1.1211 11.445-2.4766l1.3867-0.29297 0.003906 0.003907c2.293-0.17188 4.5117-0.88672 6.4766-2.0859 1.2617-0.13672 2.5039-0.39844 3.7148-0.78125 1.0938-0.45703 2.2422-0.76562 3.4219-0.91016l6.3477-0.86719h-0.003906c1.3008-0.13281 2.5742-0.46484 3.7773-0.98828 0.86328-0.38281 1.7656-0.67969 2.6875-0.87891 1.6172-0.37109 3.2578-0.64453 5.0195-0.98828 1.5742-1.2109 3.4102-2.0273 5.3633-2.3906 1.3633-0.40625 2.707-0.88672 4.0195-1.4375 1.0352-0.30078 1.9727-0.85937 2.7344-1.6211 1.0273-0.99219 2.2461-1.7656 3.582-2.2734l2.5664-1.2305c1.457-0.79297 2.9688-1.4883 4.5195-2.0859 1.8516-0.53516 3.6094-1.3477 5.2188-2.4102l2.3398 0.8125c0.85156 0.32422 1.2266 1.5156 2.5273 1.3125 0.085938-0.4375 0.125-0.88281 0.11719-1.3281-0.16797-1.5352-0.53516-3.0586-0.57422-4.5977h0.003906c-0.082031-2.0234-0.56641-4.0117-1.4297-5.8477-0.92578-2.0547-1.9727-4.0547-2.9844-6.0703l-0.41016-0.47656-1.9766-0.62109c-1.4766-1.4609-2.5625-3.2734-3.1484-5.2695-0.125-0.64062-0.67187-1.1094-1.3203-1.1367-1.5703 0.76563-3.0195 1.7578-4.3047 2.9375-0.54687 0.44531-1.1328 0.83984-1.7539 1.1836-1.7344 1.1562-3.6914 1.9453-5.7461 2.3086l-2.2422 1.4414zm-76.246 4.4883-0.11328-0.29297-1.2617-0.60156h-0.003907c-2.4375-1.5-5.2344-2.3086-8.0938-2.3438l-1.0312-0.14844c-1.3984-0.67578-2.9688-0.92188-4.5078-0.70312-0.58984-0.003906-1.1758-0.054687-1.7578-0.15625l-2.8008-0.41797c-2.4922-0.035156-4.9766-0.25-7.4375-0.63672-0.95703-0.20703-1.9453 0.19531-2.4883 1.0117-0.43359 0.60547-0.39453 1.4258 0.09375 1.9883 1.6953 0.62109 3.4375 1.1133 5.2109 1.4727l0.85156 1.4141-0.66406 0.97656c-1.4102 0.21094-2.8477 0.1875-4.2539-0.066406-1.8867-0.34766-3.8359-0.019531-5.5078 0.92578l-0.35937 0.73438 1.7305 2.4883 0.95703 4.1562c-0.16406 1.3633-0.23438 2.6758-0.49219 3.9492-0.32812 2.5898-0.85156 5.1484-1.5625 7.6602-0.63672 1.6758-0.83203 3.4922-0.5625 5.2695 0.21484 1.1719 0.14844 2.3789-0.20312 3.5195-0.55469 1.9492-0.69531 3.9922-0.41016 6l0.33984 0.82422 2.125 1.3398c2.0547-0.28516 4.1289-0.42969 6.2031-0.43359 2.8398 0.17578 5.6953 0.18359 8.5234 0.40234 1.7773 0.082032 3.5547 0.011719 5.3203-0.21094 1.6523-0.15625 3.2891-0.37891 4.957-0.44141 1.6211-0.09375 3.2266-0.38281 4.7812-0.86719l2.0508-4c0.44922-1.9805 0.71875-3.3789 1.0977-4.7461 0.47656-1.4727 0.66406-3.0273 0.55078-4.5742-0.10547-1.1836 0.003906-2.3789 0.32812-3.5234 0.26953-0.91016 0.41016-1.8516 0.41797-2.8008-0.12891-2.7266-0.050781-5.4609 0.22266-8.1758 0.15625-0.96094-0.125-1.9375-0.76172-2.668-2.2031-1.4492-4.8281-2.1289-7.457-1.9297-1.3281 0.13672-2.6719-0.125-3.8516-0.75l-0.43359-1.0078c0.36719-0.29688 0.68359-0.72266 1.0898-0.85156 0.87891-0.34766 1.8125-0.53125 2.7578-0.55078 2.0195 0.007812 4.0273-0.23438 5.9883-0.71875zm113.49-2.3281v0.003906c-1.2891-2.6172-2.8477-5.0938-4.6562-7.3789-0.58203-0.75391-1.0156-1.6055-1.293-2.5117-0.37891-1.125-0.93359-2.1836-1.6406-3.1367-0.91797-1.2383-1.7109-2.5742-2.6719-3.7734-1.1016-1.25-1.9688-2.6875-2.5664-4.2422-0.32031-0.90625-0.92188-1.6836-1.7148-2.2227-0.48047-0.375-1.1211-0.46094-1.6836-0.23047-0.48828 0.71875-0.48828 0.71875-0.32812 1.3984l2.0625 2.0898v0.003906c1.5078 2.7148 2.7383 5.5781 3.6758 8.543l3.3398 4.3867 2.168 1.2305c0.29688 1.9883 2.0195 3.0508 3.0039 4.1797 0.52734 1.4766 0.89453 2.6016 1.3477 3.6953l0.78906 0.32031c0.50391-0.80078 0.23828-1.5039 0.16797-2.3516zm-150.26 43.52 0.90625 0.77344 2.0977 0.21484 0.24219-0.17187-0.125-0.29688v0.007813c-0.89062-0.6875-2.0625-0.88281-3.1211-0.52344z"/>
  <path d="m531.09 481.4c1.1992-0.28906 2.3047-0.87891 3.2148-1.7148 1.6719-1.3281 3.5078-2.4414 5.4648-3.3047 1.6094-0.76172 3.1406-1.6836 4.5703-2.75 1.9844-1.5156 4.1133-2.8281 6.3594-3.9141 1.0742-0.51172 2.0703-1.1797 2.957-1.9766 1.207-0.96484 2.5859-1.6992 4.0664-2.1641 1.5898-0.50781 3.0625-1.3242 4.332-2.4023 1.1797-0.99219 2.5117-1.8008 3.7383-2.7344h0.003907c1.082-0.75 2.3086-1.2617 3.5977-1.5117l2.5742-1.918v0.003907c0.5-0.32031 0.94531-0.72266 1.3086-1.1914 1.5078-2.4219 3.6406-4.3516 5.2305-6.707l0.40625-0.58203c0.73828-2.0938 2.0234-3.9531 3.7266-5.375 0.22266-1.4688 0.023437-2.9727-0.57031-4.332-0.38281-1.4883-1.0156-2.8984-1.3516-4.4219h0.003906c-0.34766-1-0.81641-1.957-1.3945-2.8438l-2.5898-1.9648v0.003906c-2.8516-0.30078-5.5547-1.4297-7.7734-3.25-1.8516-0.42969-3.3359-0.81641-4.8398-1.1211-2.3281-0.47266-4.7109-0.72656-6.9844-1.3789-2.168-0.625-4.2969-1.3242-6.5117-1.8164l-0.003906-0.003906c-3.9531-0.84766-7.9688-1.3945-12.008-1.6289-3.5469-0.38281-7.1289-0.35547-10.672 0.085937-2.7266 0.24609-5.4727 0.16406-8.1797-0.24219-1.2227-0.26563-2.4062-0.6875-3.5195-1.2539l-6.457-0.99219-1.7188-0.44141v-0.003907c-1.6797-0.58594-3.4336-0.94922-5.207-1.0781-2.9648-0.26172-5.8594-1.0547-8.5391-2.3438l-1.3438-0.90234 0.96484-0.46875 0.70312 0.050782c2.3906 0.73047 4.8555 1.1797 7.3438 1.3398 2.0156 0.17187 4.0117 0.54297 5.9531 1.1055 1.0312 0.29297 2.0898 0.45703 3.1602 0.48438 2.8438 0.25 5.6953 0.34766 8.5508 0.28516 1.0664-0.066407 2.1367-0.011719 3.5117-0.011719 3.6211-0.71094 7.3086-1.0625 11-1.0586 3.6758 0.066406 7.3477-0.22266 10.965-0.87109l1.043-0.23828c3.4414 0 6.8984-0.19531 10.312 0.10938 4.0117 0.36328 7.9336 1.4648 11.969 1.7773l0.70312 0.11719c3.2695 1.0742 6.5508 2.1016 9.7891 3.2617h-0.003906c1.3164 0.54688 2.5977 1.1719 3.8398 1.8711 0.54688 0.22656 1.0742 0.5 1.5664 0.82812 0.76562 0.74219 1.6367 1.3672 2.5859 1.8516 0.91406 0.46094 1.7812 1.0117 2.5898 1.6367 1.1562 1.7266 2.6875 3.168 4.4766 4.2188 0.94922 0.38672 1.5977 1.2812 1.6719 2.3047l-1.5898 3.0234-1.1641 2.8555v-0.003907c-1.125 1.2422-2.5391 2.1953-4.1172 2.7695-0.39062 0.54688-0.29297 1.0898 0.10547 1.3242 1.5234 1.1328 2.8633 2.4922 3.9688 4.0352v2.0273c-0.85156 1.6172-2 3.2812-2.793 5.1445v-0.003906c-0.35938 0.75-0.87109 1.418-1.4961 1.9609-1.5664 1.4531-3.207 2.8242-5.0391 4.4219l-3.5117 4.5469-1.0508 0.94531-0.89844 0.55859c-1.3984 1.9297-3.2695 3.4648-5.4297 4.4688-0.76953 0.55859-1.4766 1.1953-2.1172 1.9023-1.4922 1.5312-3.0859 2.9609-4.7695 4.2773-2.4883 2.0195-5.2734 3.6406-8.2539 4.8086l-5.2734 4.6328c-2.6211 1.2266-5.1211 2.6992-7.4648 4.3945-1.5273 0.89844-2.9531 1.9648-4.2461 3.1836-3.375 1.582-5.7188 4.6367-9.0508 6.3047-1.1523 0.57812-2.0508 1.6914-3.2188 2.1875-2.9141 1.3672-5.6758 3.0469-8.2305 5.0078l-4.0156 1.3125-2.7422 0.76172c-0.80469 0.19531-1.6016 0.43359-2.3828 0.71484-0.875 0.35156-1.6953 0.82813-2.4453 1.2031-1.1562 1.5273-1.8398 3.2695-3.9023 4.3789l-6.4531 1.1602-2.4844 2.25-2.1328 0.35156-3.125 0.65625c-1.3867 0.32813-2.7461 0.80859-4.1484 1.0078-2.3594 0.23828-4.6875 0.75-6.9297 1.5312-1.1328 0.35156-2.3086 0.55859-3.4922 0.61719-2.5977 0.30469-5.0547 1.2578-7.6367 1.6094-2.4727 0.33594-4.9531 0.62109-7.4141 1.043-1.8672 0.31641-3.7148 0.75781-5.5508 1.2305-2.5039 0.70703-5.0586 1.2227-7.6406 1.543-2.7383-0.019532-5.4375 0.62109-7.8711 1.875-0.63672 0.32812-1.3203 0.54297-2.0273 0.63281-0.92578 0.22266-1.8672 0.37109-2.8164 0.44531-4.3711 0.48047-8.6797 1.4023-12.863 2.7461l-1.7344 0.37891c-2.957 0.24219-5.8906 0.73438-8.7656 1.4609-2.5586 0.69531-5.2344 0.84375-7.8555 0.4375-1.5508 0.45703-3.1523 0.89844-4.7305 1.4062-1.0039 0.37109-2.0703 0.55469-3.1406 0.54297-3.7891-0.25391-7.5938 0.13281-11.254 1.1484-1.8594-0.51953-3.8359-0.47266-5.668 0.13672-0.46484 0.11328-0.94141 0.13672-1.4141 0.074219-2.1406-0.058594-4.2773 0.14844-6.3672 0.61328-1.4062 0.22266-2.8359 0.29297-4.2617 0.20703l-6.4414 0.25c-1.3906-0.19922-2.8008-0.28906-4.207-0.26953-2.8906-0.16016-5.7852-0.054687-8.6562 0.31641l-2.9062-0.84766-1.1367 0.070313-2.7852 0.60938 0.003907-0.003907c-1.3828 0.39844-2.8359 0.47656-4.25 0.23047-4.25-0.50781-8.5391-0.58594-12.805-0.23828-1.8984 0-3.793 0.082031-5.6953-0.09375-1.1797-0.11328-2.375-0.11328-3.5625-0.12109-1.7812 0.11328-3.5703-0.019531-5.3164-0.39453-0.81641-0.15234-1.6523-0.20312-2.4844-0.16016-2.2656 0.12109-4.5234-0.34375-6.5625-1.3477-1.8828 0.20313-3.7656 0.50391-5.6523 0.58594v-0.003906c-1.8516 0.10547-3.6992-0.30859-5.3281-1.1992-4.1953-0.46094-8.2148-0.78516-12.219-1.2891-3.8906-0.49219-7.6953-1.3984-11.508-2.2227-3.9336-0.85156-7.8008-2.0234-11.934-3.1172l-3.2539-0.45312-3.8281-0.63672-1.7539-0.94531c-3.3789-0.86719-6.2812-1.4961-9.1094-2.3633-4.3086-1.3164-8.5703-2.8008-12.852-4.207-1.0156-0.33594-2.0234-0.71484-3.0625-0.94531v-0.003907c-1.6328-0.33984-3.1914-0.97656-4.5859-1.8867-0.98438-0.68359-2.1055-1.1367-3.2852-1.3281-1.4062-0.27344-2.7305-0.87891-3.8555-1.7695-2.0312-1.4414-3.9688-3.0195-6.0469-4.3828-1.7422-1.3008-3.707-2.2812-5.7969-2.8828-2.2773-2.0078-4.7852-3.7422-7.4648-5.168-2.6641-4.3672-6.8711-7.5742-11.789-8.9805-1.457-1.3672-2.6211-3.0156-3.4219-4.8438-0.23438-0.66797-0.5625-1.3008-0.97266-1.8828-2.1641-2.4062-3.5039-5.3672-5.4531-7.9141v0.003906c-1.4805-2.0078-2.6953-4.1992-3.6094-6.5195-0.21484-3.2383-0.21484-3.2383 1.6133-4.7969l1.1094 0.64453h0.003906c0.78516 0.72656 1.4453 1.582 1.9492 2.5234 1.1328 2.2539 2.6758 4.2773 4.5469 5.9688 0.44141 1.582 1.2617 3.0312 2.3867 4.2227 0.39063 0.44922 0.71484 0.95312 0.96094 1.4922l2.4102 4.8477c1.5508 1.1016 3.3047 1.8789 5.1602 2.293 2.6367 2.3516 5.3984 4.5586 8.2695 6.6172 2.75 0.8125 5.3438 2.0742 7.6797 3.7344 0.89453 0.58594 1.8711 1.0391 2.8945 1.3477 1.5586 0.57812 3.1484 1.0742 4.7617 1.4844 1.5039 0.35938 2.957 0.88281 4.3438 1.5625 1.0781 0.49609 2.2188 0.84766 3.3906 1.0547 1.8594 0.38672 3.668 0.98437 5.3906 1.7773 0.76562 0.32422 1.5586 0.57812 2.3711 0.75781 1.6172 0.21094 3.1641 0.79688 4.5117 1.7148l10.559 2.1914 4.5625 0.83984 5.9766 0.91406c0.59375 0.046875 1.1758 0.18359 1.7305 0.39844 2 0.76562 4.0859 1.293 6.207 1.5664 0.59375 0.035156 1.1797 0.14453 1.7422 0.32422 2.2188 0.85547 4.543 1.418 6.9062 1.6719 4.5391 0.89062 9.1328 1.5078 13.746 1.8359 3.4219 0.40625 6.8672 0.59766 10.312 0.57031 1.6641-0.023438 3.3281 0.074218 4.9805 0.28516 2.3555 0.33594 4.7422 0.36719 7.1055 0.09375 0.71094-0.082032 1.4297-0.035156 2.125 0.14062 2.2188 0.44531 4.4922 0.57422 6.7461 0.38672 2.3789 0.09375 4.7617-0.058594 7.1055-0.45703 0.47266-0.042968 0.94531-0.03125 1.4141 0.035156 1.5391 0.082032 3.082 0.070313 4.6172-0.042968 4.2656-0.39453 8.5547-0.48438 12.832-0.27734 0.94531 0.007812 1.8945-0.050781 2.832-0.16797 1.0586-0.125 2.1016-0.42578 3.1602-0.48438 0.98438 0.003906 1.9648 0.078125 2.9375 0.21484l3.3398-1.1914c2.1094 0.24609 4.2461 0.15625 6.3281-0.26562 3.832 0.32812 7.5352-0.96875 11.359-0.88281 0.94141-0.078125 1.8672-0.29688 2.7461-0.64453l2.4609-0.83984h0.003906c2.0586 0.51953 4.2188 0.45312 6.2422-0.19531 0.67188-0.23828 1.3867-0.35547 2.1016-0.34375 2.0234-0.035157 4.0312-0.35938 5.9648-0.95703 1.3867-0.31641 2.7891-0.56641 4.1953-0.80078 2.6953-0.44531 5.3906-0.89062 8.0938-1.2656 2.4688-0.34375 4.9609-0.53516 7.4297-0.89844 3.9961-0.58594 7.9805-1.25 11.965-1.8945l3.1484-0.58203c1.1797-0.16016 2.3477-0.37891 3.5039-0.66406 2.4141-0.62891 4.8594-1.1328 7.3242-1.5156 3.9648-0.75391 7.9766-1.2891 11.891-2.3164 0.69531-0.16406 1.4023-0.26172 2.1172-0.29297 2.4883-0.16797 4.9883-0.23047 7.4727-0.47266 2.6016-0.25 5.1914-0.625 7.7812-1h-0.003906c1.1641-0.24219 2.3594-0.3125 3.543-0.20312l1.0703 0.039062c4.3828-0.32031 8.7656-0.66797 13.152-0.96875 2.1602-0.14844 4.1602-1.0078 6.2617-1.3359l-0.007813 0.003907c2.1367-0.066407 4.2617-0.30469 6.3594-0.71484l1.0469-0.20703c4.6055-0.5625 9.1133-1.7344 13.41-3.4883 1.1211-0.37891 2.3047-0.61719 3.3867-1.082 2.0742-0.89844 4.1211-1.8555 6.1289-2.8945 2.8398-1.4688 5.5469-3.1758 8.2422-4.8867 1.4961-0.94531 2.8398-2.1328 4.3164-3.1445h-0.003906c1.4688-1.1445 2.8672-2.375 4.1836-3.6953z"/>
  <path d="m164.14 452.39c-0.94922-0.24219-1.9531 0.042969-2.6289 0.75-0.91797 0.92578-1.7578 1.9336-2.3281 2.5664-1.7812 0.50391-1.7812 0.51953-2.8516 0.26953 0.22656-0.875 1.0156-1.2852 1.5859-1.8594 2.0117-2.0273 4.0312-4.043 6.1094-5.9961 0.97656-0.87109 2-1.6836 3.0664-2.4453 2.3672-1.7891 4.7695-3.543 7.1328-5.3398 2.6289-1.8555 5.6367-3.0977 8.8086-3.6406 2.5625-0.45703 5.0664-1.2109 7.457-2.25 1.6094-0.76562 3.3359-1.2578 5.1094-1.4492 1.9102-0.1875 3.7383-0.64453 5.6016-0.99219h0.003906c2.0625-0.53516 4.1641-0.89453 6.2891-1.0781 2.1445-0.03125 4.2539-0.5 6.3945-0.35938h-0.003906c2.0117-0.17187 4.0312-0.20312 6.043-0.097656 1.9961-0.30078 3.9688-0.74609 5.8984-1.3242 2.5156-1.0664 5.2148-1.6211 7.9414-1.6328 1.9062-1.0312 3.9844-1.7109 6.1328-2.0078 1.1758-0.17969 2.3281-0.48828 3.4336-0.91797 2.1211-0.75781 4.207-1.6211 6.3164-2.4141 0.64453-0.30469 1.3359-0.49609 2.043-0.56641 2.1445-0.16016 4.2266-0.76953 6.125-1.7773 1.2773-0.62109 2.6055-1.1367 3.9688-1.5391 1.2578-0.42188 2.4727-0.94922 3.6406-1.5742l2.7812 0.48828 0.24609 1.082h-0.003906c-0.19922 1.0781-0.9375 1.9805-1.9531 2.3906-1.168 0.60156-2.1836 1.457-2.9805 2.5-2.2188 1.1367-4.5586 2.0195-6.9805 2.625l-1.2812 0.60937c-1.3945 0.64844-2.8594 1.1406-4.3672 1.4609-3.7148 0.80859-7.3242 2.0664-10.738 3.7422-0.83203 0.45703-1.7031 0.83594-2.6055 1.1367-2.0234 0.66016-4.0742 1.2383-6.1641 1.8633l-1.1602 1.9492-2.9258 1.8164-6.1406 1.4844c-1.375 0.96094-2.8438 1.7773-4.3867 2.4375-1.3359 0.46094-2.7031 0.83203-4.0898 1.1094-2.332 0.41797-4.6055 1.1562-7.0039 1.7891-1.5586 1.2344-3.3828 2.0977-5.3281 2.5195-2.2266 0.31641-4.4141 0.875-6.5195 1.668-1.707 0.51953-3.4375 0.94531-5.1875 1.2812-1.5234 0.26562-3 0.75781-4.375 1.4648l-1.6328 0.69922c-1.9492 0.5625-3.7344 1.5859-5.2031 2.9883-1.2305 1.1133-2.5586 2.125-3.8633 3.1992l-2.0234 0.74609-2.9414 2.8711-6.1055 0.82031c-0.97656-0.44141-1.1406-1.4062-1.4062-2.25-0.29688-3.2539 0.78516-6.4844 2.9883-8.8984l1.4414-2.7305-1.1211 0.47266v0.003906c-0.53516 0.66016-0.63672 1.5742-0.25781 2.3359z"/>
  <path d="m344.12 317.47c2.418 1.1836 4.9961 2.0078 7.6523 2.4453l0.69922 0.13281c1.5391 0.61719 3.043 1.3477 4.6172 1.8555 1.5742 0.50781 3.2773 0.64844 4.8125 1.2305h-0.003906c1.7383 0.75 3.4336 1.5859 5.0859 2.5039l0.30859 1.1719-1.5156 0.85156-1.3633 0.40234c-0.5 1.418-1.7812 2.4102-3.2773 2.543l-1.7734-0.85547-2.793 0.58594v0.003906c-1.1875 0.26953-2.4336-0.070313-3.3203-0.90625-1.2539-1.0781-2.7461-1.8438-4.3594-2.2188-1.7461-0.73047-3.4258-1.6133-5.0195-2.6367l-1.1602-0.82031c-2.5977-1.3203-4.8398-3.2422-6.5469-5.6055-1.8398-0.62109-3.4492-1.7812-4.625-3.3281l-0.16406-2.3672 1.0352-0.82031c1.3516 0.25 2.4297 1.1172 3.832 0.94531l-0.003907 0.003907c0.71094 0.046874 1.3945 0.29297 1.9727 0.71484 2.1289 1.1484 4.1133 2.5469 5.9102 4.168z"/>
  <path d="m353.63 387.66v-0.63672l0.24609-0.32812 2.8555-1.5469c2.4219 0.75781 5.0312 0.65625 7.3867-0.28516 1.7266 0.73438 3.5977 1.0586 5.4688 0.94531 1.9961 0.10937 3.9766 0.37109 5.9336 0.78125 2.0977 0.34375 4.1797 0.77344 6.5273 1.2109 1.3125 0.86328 2.7656 1.4805 4.2969 1.8203 1.2461 0.12891 2.3633 0.82031 3.0312 1.8789l-0.59766 1.1602h0.003906c-1.9961 0.4375-4.0547 0.47266-6.0625 0.097656-3.7422-0.56641-7.4844-1.1875-11.227-1.7578-1.1484-0.17578-2.3359 0.39453-3.4766-0.13281-2.5977-0.09375-5.1836-0.46094-7.707-1.0898-1.9492-0.35156-3.8359-1.1055-5.7891-1.543z"/>
  <path d="m312.69 447.04c0.79688-1.7734 0.8125-1.7656 2.0586-2.668 1.4492-0.27734 2.9492-0.019532 4.2266 0.72266l1.2695 1.9453 0.60156 1.125h0.003906c-0.10156 1.1328-0.83594 2.1133-1.8945 2.5234-0.77344 0.32031-1.582 0.55859-2.4023 0.71094-1.4336-1.3164-2.7266-2.7773-3.8633-4.3594z"/>
  <path d="m304.31 441.45c1.1992 0.074219 1.4727 0.78516 1.9297 1.3125l1.4688 1.3438v0.003906c0.21875 1.6875-0.58594 3.3438-2.0469 4.2148l-1.5156 0.30859-1.5859 0.10547c-1.1289-0.40625-1.8633-1.5-1.8125-2.6992 0.55078-1.9336 1.8242-3.5781 3.5625-4.5898z"/>
  <path d="m529.65 435.99c1.6484-1.0898 3.6367-1.5469 5.5938-1.2891 0.83594 0.042969 1.6211 0.40625 2.1953 1.0117l0.49219 1.0312c-0.37891 0.28516-0.70703 0.71094-1.1016 0.80078h-0.003906c-2.2266 0.60938-4.5625 0.69141-6.8242 0.23438-0.54688-0.57812-0.79688-1.0703-0.35156-1.7891z"/>
  <path d="m448.74 402.32c-1.2383 0.32422-1.2383 0.32422-1.9375-0.29687 0.58203-0.70313 1.1367-0.47266 1.9375 0.29687z"/>
  <path d="m249.11 419.66c-0.34766 0.46484-0.96484 0.64063-1.5039 0.42969 0.31641-0.85156 0.87891-0.73828 1.5039-0.42969z"/>
  <path d="m341.75 446.34c-0.99609 1.5117-1.4805 3.3047-1.3828 5.1133-0.023438 2.6133-0.14844 5.2227-0.22656 7.7734l-0.71484 1.3398-0.37891 0.55469c-1.0156 0.51172-2.2305 0.44531-3.1836-0.17969l-0.44922-0.88281c-0.11328-0.46094-0.16797-0.9375-0.16406-1.4102-0.085937-4.625 0.12109-9.2461 0.62891-13.844 0.21484-1.6367 0.15234-3.3164 0.21094-4.832 0.32031-0.98828 1.1914-1.6992 2.2266-1.8203 1.1797 0.24219 2.1406 1.1055 2.5 2.2578 0.31641 0.89062 0.53125 1.8203 0.63672 2.7617 0.14844 0.92969 0.18359 1.8828 0.29688 3.168z"/>
 </g>
</svg>
